<mxfile host="app.diagrams.net" modified="2023-08-28T17:31:54.277Z" agent="Mozilla/5.0 (Windows NT 10.0; Win64; x64) AppleWebKit/537.36 (KHTML, like Gecko) Chrome/116.0.0.0 Safari/537.36" etag="ZjdR2kS_qS123s0SYfzZ" version="21.6.9" type="github">
  <diagram name="Page-1" id="HzO_25xH5rC3ny7MKxbv">
    <mxGraphModel dx="880" dy="516" grid="1" gridSize="10" guides="1" tooltips="1" connect="1" arrows="1" fold="1" page="1" pageScale="1" pageWidth="850" pageHeight="1100" math="0" shadow="0">
      <root>
        <mxCell id="0" />
        <mxCell id="1" parent="0" />
        <mxCell id="QVXCEcFhYz-SNy5NNwPk-4" style="edgeStyle=orthogonalEdgeStyle;rounded=0;orthogonalLoop=1;jettySize=auto;html=1;exitX=1;exitY=0.5;exitDx=0;exitDy=0;" edge="1" parent="1" source="QVXCEcFhYz-SNy5NNwPk-1" target="QVXCEcFhYz-SNy5NNwPk-3">
          <mxGeometry relative="1" as="geometry" />
        </mxCell>
        <mxCell id="QVXCEcFhYz-SNy5NNwPk-1" value="&lt;font style=&quot;font-size: 14px;&quot;&gt;Exam&lt;br&gt;eg. Fiinal&lt;/font&gt;" style="rounded=1;whiteSpace=wrap;html=1;" vertex="1" parent="1">
          <mxGeometry x="80" y="170" width="120" height="60" as="geometry" />
        </mxCell>
        <mxCell id="QVXCEcFhYz-SNy5NNwPk-6" style="edgeStyle=orthogonalEdgeStyle;rounded=0;orthogonalLoop=1;jettySize=auto;html=1;entryX=0.5;entryY=0;entryDx=0;entryDy=0;" edge="1" parent="1" source="QVXCEcFhYz-SNy5NNwPk-3" target="QVXCEcFhYz-SNy5NNwPk-5">
          <mxGeometry relative="1" as="geometry" />
        </mxCell>
        <mxCell id="QVXCEcFhYz-SNy5NNwPk-3" value="&lt;font style=&quot;font-size: 14px;&quot;&gt;Section&lt;br&gt;eg. 6/A&lt;/font&gt;" style="rounded=1;whiteSpace=wrap;html=1;" vertex="1" parent="1">
          <mxGeometry x="280" y="170" width="120" height="60" as="geometry" />
        </mxCell>
        <mxCell id="QVXCEcFhYz-SNy5NNwPk-5" value="Student&lt;br&gt;eg. Alex" style="rounded=1;whiteSpace=wrap;html=1;" vertex="1" parent="1">
          <mxGeometry x="280" y="300" width="120" height="60" as="geometry" />
        </mxCell>
      </root>
    </mxGraphModel>
  </diagram>
</mxfile>
